<svg xmlns="http://www.w3.org/2000/svg" viewBox="0 0 480 200" width="480" height="200">
  <rect width="480" height="200" fill="#131417"/>
  <rect x="0.5" y="0.5" width="479" height="199" fill="none" stroke="rgba(233,230,221,.08)"/>
  <g transform="translate(72,104) scale(4.4) translate(-12,-12)">
  <rect x="3.5" y="5" width="3" height="15" rx="1" fill="#6ED191"/>
  <rect x="8.5" y="9" width="3" height="11" rx="1" fill="#b8b3a6"/>
  <rect x="13.5" y="13" width="3" height="7" rx="1" fill="#8a857b"/>
  <rect x="18.5" y="16" width="3" height="4" rx="1" fill="#E86862"/></g>
  <g transform="translate(250,128) scale(1.15) translate(-12,-12)">
  <rect x="3.5" y="5" width="3" height="15" rx="1" fill="#6ED191"/>
  <rect x="8.5" y="9" width="3" height="11" rx="1" fill="#b8b3a6"/>
  <rect x="13.5" y="13" width="3" height="7" rx="1" fill="#8a857b"/>
  <rect x="18.5" y="16" width="3" height="4" rx="1" fill="#E86862"/></g>
  <text x="250" y="70" font-family="Georgia, serif" font-size="20" fill="#e9e6dd">Power Law</text>
  <text x="250" y="150" font-family="ui-monospace, monospace" font-size="10.5" letter-spacing="1.5" fill="#88857e">The Zipf consensus — many voices, one canon</text>
  <text x="72" y="186" font-family="ui-monospace, monospace" font-size="9" letter-spacing="2" fill="#88857e" text-anchor="middle">THE MARK</text>
  <text x="250" y="178" font-family="ui-monospace, monospace" font-size="9" letter-spacing="2" fill="#88857e">↑ ACTUAL NAV SIZE</text>
</svg>