<svg xmlns="http://www.w3.org/2000/svg" viewBox="0 0 480 200" width="480" height="200">
  <rect width="480" height="200" fill="#131417"/>
  <rect x="0.5" y="0.5" width="479" height="199" fill="none" stroke="rgba(233,230,221,.08)"/>
  <g transform="translate(72,104) scale(4.4) translate(-12,-12)">
  <path d="M12 19.5 C4.5 14 3.2 7.8 7.6 5.8 C10 4.7 12 6.2 12 8.2 C12 6.2 14 4.7 16.4 5.8 C20.8 7.8 19.5 14 12 19.5 Z" fill="none" stroke="#e9e6dd" stroke-width="1.3"/>
  <line x1="7.6" y1="7.6" x2="12" y2="17.5" stroke="rgba(233,230,221,.32)" stroke-width="1"/>
  <line x1="16.4" y1="7.6" x2="12" y2="17.5" stroke="rgba(233,230,221,.32)" stroke-width="1"/>
  <circle cx="7.6" cy="7.6" r="1.7" fill="#6ED191"/>
  <circle cx="16.4" cy="7.6" r="1.7" fill="#E86862"/>
  <circle cx="12" cy="17.6" r="1.7" fill="#e9e6dd"/></g>
  <g transform="translate(250,128) scale(1.15) translate(-12,-12)">
  <path d="M12 19.5 C4.5 14 3.2 7.8 7.6 5.8 C10 4.7 12 6.2 12 8.2 C12 6.2 14 4.7 16.4 5.8 C20.8 7.8 19.5 14 12 19.5 Z" fill="none" stroke="#e9e6dd" stroke-width="1.3"/>
  <line x1="7.6" y1="7.6" x2="12" y2="17.5" stroke="rgba(233,230,221,.32)" stroke-width="1"/>
  <line x1="16.4" y1="7.6" x2="12" y2="17.5" stroke="rgba(233,230,221,.32)" stroke-width="1"/>
  <circle cx="7.6" cy="7.6" r="1.7" fill="#6ED191"/>
  <circle cx="16.4" cy="7.6" r="1.7" fill="#E86862"/>
  <circle cx="12" cy="17.6" r="1.7" fill="#e9e6dd"/></g>
  <text x="250" y="70" font-family="Georgia, serif" font-size="20" fill="#e9e6dd">Heart Of Nodes</text>
  <text x="250" y="150" font-family="ui-monospace, monospace" font-size="10.5" letter-spacing="1.5" fill="#88857e">Machines of Loving Taste — a heart of nodes</text>
  <text x="72" y="186" font-family="ui-monospace, monospace" font-size="9" letter-spacing="2" fill="#88857e" text-anchor="middle">THE MARK</text>
  <text x="250" y="178" font-family="ui-monospace, monospace" font-size="9" letter-spacing="2" fill="#88857e">↑ ACTUAL NAV SIZE</text>
</svg>