<svg xmlns="http://www.w3.org/2000/svg" viewBox="0 0 480 200" width="480" height="200">
  <rect width="480" height="200" fill="#131417"/>
  <rect x="0.5" y="0.5" width="479" height="199" fill="none" stroke="rgba(233,230,221,.08)"/>
  <g transform="translate(72,104) scale(4.4) translate(-12,-12)">
  <path d="M9 4.5 3.5 19 14.5 19 Z" fill="none" stroke="#e9e6dd" stroke-width="1.4" stroke-linejoin="round"/>
  <line x1="1" y1="10.5" x2="8.4" y2="12.4" stroke="#e9e6dd" stroke-width="1.3" stroke-linecap="round"/>
  <line x1="11" y1="12" x2="23" y2="8" stroke="#6ED191" stroke-width="1.3" stroke-linecap="round"/>
  <line x1="11" y1="12.4" x2="23" y2="12.4" stroke="#cec8ba" stroke-width="1.3" stroke-linecap="round"/>
  <line x1="11" y1="12.8" x2="23" y2="16.6" stroke="#E86862" stroke-width="1.3" stroke-linecap="round"/></g>
  <g transform="translate(250,128) scale(1.15) translate(-12,-12)">
  <path d="M9 4.5 3.5 19 14.5 19 Z" fill="none" stroke="#e9e6dd" stroke-width="1.4" stroke-linejoin="round"/>
  <line x1="1" y1="10.5" x2="8.4" y2="12.4" stroke="#e9e6dd" stroke-width="1.3" stroke-linecap="round"/>
  <line x1="11" y1="12" x2="23" y2="8" stroke="#6ED191" stroke-width="1.3" stroke-linecap="round"/>
  <line x1="11" y1="12.4" x2="23" y2="12.4" stroke="#cec8ba" stroke-width="1.3" stroke-linecap="round"/>
  <line x1="11" y1="12.8" x2="23" y2="16.6" stroke="#E86862" stroke-width="1.3" stroke-linecap="round"/></g>
  <text x="250" y="70" font-family="Georgia, serif" font-size="20" fill="#e9e6dd">Prism Spectrum</text>
  <text x="250" y="150" font-family="ui-monospace, monospace" font-size="10.5" letter-spacing="1.5" fill="#88857e">The two questions refracted into taste</text>
  <text x="72" y="186" font-family="ui-monospace, monospace" font-size="9" letter-spacing="2" fill="#88857e" text-anchor="middle">THE MARK</text>
  <text x="250" y="178" font-family="ui-monospace, monospace" font-size="9" letter-spacing="2" fill="#88857e">↑ ACTUAL NAV SIZE</text>
</svg>