<svg xmlns="http://www.w3.org/2000/svg" viewBox="0 0 480 200" width="480" height="200"><defs><filter id="a" x="-70%" y="-70%" width="240%" height="240%"><feGaussianBlur stdDeviation="0.9" result="b"/><feMerge><feMergeNode in="b"/><feMergeNode in="b"/><feMergeNode in="SourceGraphic"/></feMerge></filter><filter id="b" x="-70%" y="-70%" width="240%" height="240%"><feGaussianBlur stdDeviation="0.5" result="b"/><feMerge><feMergeNode in="b"/><feMergeNode in="b"/><feMergeNode in="SourceGraphic"/></feMerge></filter></defs>
    <rect width="480" height="200" fill="#0f1013"/><rect x="0.5" y="0.5" width="479" height="199" fill="none" stroke="rgba(233,230,221,.08)"/>
    <g transform="translate(44,52) scale(3.0)"><g filter="url(#a)" stroke="#e9e6dd" fill="none" stroke-linecap="round" stroke-linejoin="round">
    <circle cx="16" cy="11.5" r="5.2" stroke-width="1.15" opacity="0.95"/>
    <path d="M12 19 L20 19 L21.5 26 L10.5 26 Z" stroke-width="1.1" opacity="0.85"/>
    <line x1="6.5" y1="26.5" x2="25.5" y2="26.5" stroke-width="1" opacity="0.55"/>
  </g>
  <circle cx="14.2" cy="9.7" r="1.3" fill="#e9e6dd" filter="url(#a)" opacity="0.95"/></g>
    <g transform="translate(250,120) scale(0.8) translate(-16,-16)"><g filter="url(#b)" stroke="#e9e6dd" fill="none" stroke-linecap="round" stroke-linejoin="round">
    <circle cx="16" cy="11.5" r="5.2" stroke-width="1.15" opacity="0.95"/>
    <path d="M12 19 L20 19 L21.5 26 L10.5 26 Z" stroke-width="1.1" opacity="0.85"/>
    <line x1="6.5" y1="26.5" x2="25.5" y2="26.5" stroke-width="1" opacity="0.55"/>
  </g>
  <circle cx="14.2" cy="9.7" r="1.3" fill="#e9e6dd" filter="url(#b)" opacity="0.95"/></g>
    <text x="250" y="66" font-family="Georgia, serif" font-size="20" fill="#e9e6dd">Plinth & Orb</text>
    <text x="250" y="150" font-family="ui-monospace, monospace" font-size="10" letter-spacing="1" fill="#88857e">an object of taste on an architectural pedestal</text>
    <text x="250" y="176" font-family="ui-monospace, monospace" font-size="9" letter-spacing="2" fill="#88857e">↑ NAV SIZE</text></svg>