<svg xmlns="http://www.w3.org/2000/svg" viewBox="0 0 480 200" width="480" height="200"><defs><filter id="a" x="-70%" y="-70%" width="240%" height="240%"><feGaussianBlur stdDeviation="0.9" result="b"/><feMerge><feMergeNode in="b"/><feMergeNode in="b"/><feMergeNode in="SourceGraphic"/></feMerge></filter><filter id="b" x="-70%" y="-70%" width="240%" height="240%"><feGaussianBlur stdDeviation="0.5" result="b"/><feMerge><feMergeNode in="b"/><feMergeNode in="b"/><feMergeNode in="SourceGraphic"/></feMerge></filter></defs>
    <rect width="480" height="200" fill="#0f1013"/><rect x="0.5" y="0.5" width="479" height="199" fill="none" stroke="rgba(233,230,221,.08)"/>
    <g transform="translate(44,52) scale(3.0)"><g filter="url(#a)" stroke="#e9e6dd" fill="none" stroke-linecap="round" stroke-linejoin="round">
    <line x1="12.5" y1="4.5" x2="19.5" y2="4.5" stroke-width="1.1" opacity="0.85"/>
    <path d="M13 4.5 C12 8 8.5 10 8.5 16 C8.5 22 12 24 13 25.5 L19 25.5 C20 24 23.5 22 23.5 16 C23.5 10 20 8 19 4.5" stroke-width="1.15" opacity="0.95"/>
    <path d="M12.8 6.5 C9 7 7.5 10.5 9.2 12.5" stroke-width="1" opacity="0.7"/>
    <path d="M19.2 6.5 C23 7 24.5 10.5 22.8 12.5" stroke-width="1" opacity="0.7"/>
    <line x1="12.5" y1="25.8" x2="19.5" y2="25.8" stroke-width="1.1" opacity="0.7"/>
  </g>
  <circle cx="16" cy="16" r="1.7" fill="#e9e6dd" filter="url(#a)" opacity="0.98"/></g>
    <g transform="translate(250,120) scale(0.8) translate(-16,-16)"><g filter="url(#b)" stroke="#e9e6dd" fill="none" stroke-linecap="round" stroke-linejoin="round">
    <line x1="12.5" y1="4.5" x2="19.5" y2="4.5" stroke-width="1.1" opacity="0.85"/>
    <path d="M13 4.5 C12 8 8.5 10 8.5 16 C8.5 22 12 24 13 25.5 L19 25.5 C20 24 23.5 22 23.5 16 C23.5 10 20 8 19 4.5" stroke-width="1.15" opacity="0.95"/>
    <path d="M12.8 6.5 C9 7 7.5 10.5 9.2 12.5" stroke-width="1" opacity="0.7"/>
    <path d="M19.2 6.5 C23 7 24.5 10.5 22.8 12.5" stroke-width="1" opacity="0.7"/>
    <line x1="12.5" y1="25.8" x2="19.5" y2="25.8" stroke-width="1.1" opacity="0.7"/>
  </g>
  <circle cx="16" cy="16" r="1.7" fill="#e9e6dd" filter="url(#b)" opacity="0.98"/></g>
    <text x="250" y="66" font-family="Georgia, serif" font-size="20" fill="#e9e6dd">Classical Vessel</text>
    <text x="250" y="150" font-family="ui-monospace, monospace" font-size="10" letter-spacing="1" fill="#88857e">taste as canon — a curated museum object</text>
    <text x="250" y="176" font-family="ui-monospace, monospace" font-size="9" letter-spacing="2" fill="#88857e">↑ NAV SIZE</text></svg>