<svg xmlns="http://www.w3.org/2000/svg" viewBox="0 0 900 240" width="900" height="240"><defs><filter id="g0l" x="-70%" y="-70%" width="240%" height="240%"><feGaussianBlur stdDeviation="0.9" result="b"/><feMerge><feMergeNode in="b"/><feMergeNode in="b"/><feMergeNode in="SourceGraphic"/></feMerge></filter><filter id="g0s" x="-70%" y="-70%" width="240%" height="240%"><feGaussianBlur stdDeviation="0.5" result="b"/><feMerge><feMergeNode in="b"/><feMergeNode in="b"/><feMergeNode in="SourceGraphic"/></feMerge></filter><filter id="g1l" x="-70%" y="-70%" width="240%" height="240%"><feGaussianBlur stdDeviation="0.9" result="b"/><feMerge><feMergeNode in="b"/><feMergeNode in="b"/><feMergeNode in="SourceGraphic"/></feMerge></filter><filter id="g1s" x="-70%" y="-70%" width="240%" height="240%"><feGaussianBlur stdDeviation="0.5" result="b"/><feMerge><feMergeNode in="b"/><feMergeNode in="b"/><feMergeNode in="SourceGraphic"/></feMerge></filter><filter id="g2l" x="-70%" y="-70%" width="240%" height="240%"><feGaussianBlur stdDeviation="0.9" result="b"/><feMerge><feMergeNode in="b"/><feMergeNode in="b"/><feMergeNode in="SourceGraphic"/></feMerge></filter><filter id="g2s" x="-70%" y="-70%" width="240%" height="240%"><feGaussianBlur stdDeviation="0.5" result="b"/><feMerge><feMergeNode in="b"/><feMergeNode in="b"/><feMergeNode in="SourceGraphic"/></feMerge></filter></defs><rect width="900" height="240" fill="#0f1013"/><g transform="translate(0,0)">
    <rect x="0.5" y="0.5" width="299" height="239" fill="none" stroke="rgba(233,230,221,.08)"/>
    <g transform="translate(28,60) scale(3.1)"><g filter="url(#g0l)" stroke="#e9e6dd" fill="none" stroke-linecap="round" stroke-linejoin="round">
    <path d="M8.5 5 L23.5 5 C23.5 12.5 20 16 16 16 C12 16 8.5 12.5 8.5 5 Z" stroke-width="1.15" opacity="0.95"/>
    <line x1="16" y1="16" x2="16" y2="25" stroke-width="1.1" opacity="0.7"/>
    <line x1="10.5" y1="26" x2="21.5" y2="26" stroke-width="1.1" opacity="0.7"/>
  </g>
  <circle cx="16" cy="9.5" r="1.7" fill="#e9e6dd" filter="url(#g0l)" opacity="0.98"/></g>
    <g transform="translate(178,150) scale(0.8) translate(-16,-16)"><g filter="url(#g0s)" stroke="#e9e6dd" fill="none" stroke-linecap="round" stroke-linejoin="round">
    <path d="M8.5 5 L23.5 5 C23.5 12.5 20 16 16 16 C12 16 8.5 12.5 8.5 5 Z" stroke-width="1.15" opacity="0.95"/>
    <line x1="16" y1="16" x2="16" y2="25" stroke-width="1.1" opacity="0.7"/>
    <line x1="10.5" y1="26" x2="21.5" y2="26" stroke-width="1.1" opacity="0.7"/>
  </g>
  <circle cx="16" cy="9.5" r="1.7" fill="#e9e6dd" filter="url(#g0s)" opacity="0.98"/></g>
    <text x="150" y="42" font-family="Georgia, serif" font-size="18" fill="#e9e6dd" text-anchor="middle">Tasting Glass</text>
    <text x="150" y="205" font-family="ui-monospace, monospace" font-size="9" letter-spacing="0.6" fill="#88857e" text-anchor="middle">the palate — a chalice holding a drop of light</text>
    <text x="178" y="178" font-family="ui-monospace, monospace" font-size="8" letter-spacing="1.5" fill="#88857e" text-anchor="middle">nav size</text>
  </g><g transform="translate(300,0)">
    <rect x="0.5" y="0.5" width="299" height="239" fill="none" stroke="rgba(233,230,221,.08)"/>
    <g transform="translate(28,60) scale(3.1)"><g filter="url(#g1l)" stroke="#e9e6dd" fill="none" stroke-linecap="round" stroke-linejoin="round">
    <line x1="12.5" y1="4.5" x2="19.5" y2="4.5" stroke-width="1.1" opacity="0.85"/>
    <path d="M13 4.5 C12 8 8.5 10 8.5 16 C8.5 22 12 24 13 25.5 L19 25.5 C20 24 23.5 22 23.5 16 C23.5 10 20 8 19 4.5" stroke-width="1.15" opacity="0.95"/>
    <path d="M12.8 6.5 C9 7 7.5 10.5 9.2 12.5" stroke-width="1" opacity="0.7"/>
    <path d="M19.2 6.5 C23 7 24.5 10.5 22.8 12.5" stroke-width="1" opacity="0.7"/>
    <line x1="12.5" y1="25.8" x2="19.5" y2="25.8" stroke-width="1.1" opacity="0.7"/>
  </g>
  <circle cx="16" cy="16" r="1.7" fill="#e9e6dd" filter="url(#g1l)" opacity="0.98"/></g>
    <g transform="translate(178,150) scale(0.8) translate(-16,-16)"><g filter="url(#g1s)" stroke="#e9e6dd" fill="none" stroke-linecap="round" stroke-linejoin="round">
    <line x1="12.5" y1="4.5" x2="19.5" y2="4.5" stroke-width="1.1" opacity="0.85"/>
    <path d="M13 4.5 C12 8 8.5 10 8.5 16 C8.5 22 12 24 13 25.5 L19 25.5 C20 24 23.5 22 23.5 16 C23.5 10 20 8 19 4.5" stroke-width="1.15" opacity="0.95"/>
    <path d="M12.8 6.5 C9 7 7.5 10.5 9.2 12.5" stroke-width="1" opacity="0.7"/>
    <path d="M19.2 6.5 C23 7 24.5 10.5 22.8 12.5" stroke-width="1" opacity="0.7"/>
    <line x1="12.5" y1="25.8" x2="19.5" y2="25.8" stroke-width="1.1" opacity="0.7"/>
  </g>
  <circle cx="16" cy="16" r="1.7" fill="#e9e6dd" filter="url(#g1s)" opacity="0.98"/></g>
    <text x="150" y="42" font-family="Georgia, serif" font-size="18" fill="#e9e6dd" text-anchor="middle">Classical Vessel</text>
    <text x="150" y="205" font-family="ui-monospace, monospace" font-size="9" letter-spacing="0.6" fill="#88857e" text-anchor="middle">taste as canon — a curated museum object</text>
    <text x="178" y="178" font-family="ui-monospace, monospace" font-size="8" letter-spacing="1.5" fill="#88857e" text-anchor="middle">nav size</text>
  </g><g transform="translate(600,0)">
    <rect x="0.5" y="0.5" width="299" height="239" fill="none" stroke="rgba(233,230,221,.08)"/>
    <g transform="translate(28,60) scale(3.1)"><g filter="url(#g2l)" stroke="#e9e6dd" fill="none" stroke-linecap="round" stroke-linejoin="round">
    <circle cx="16" cy="11.5" r="5.2" stroke-width="1.15" opacity="0.95"/>
    <path d="M12 19 L20 19 L21.5 26 L10.5 26 Z" stroke-width="1.1" opacity="0.85"/>
    <line x1="6.5" y1="26.5" x2="25.5" y2="26.5" stroke-width="1" opacity="0.55"/>
  </g>
  <circle cx="14.2" cy="9.7" r="1.3" fill="#e9e6dd" filter="url(#g2l)" opacity="0.95"/></g>
    <g transform="translate(178,150) scale(0.8) translate(-16,-16)"><g filter="url(#g2s)" stroke="#e9e6dd" fill="none" stroke-linecap="round" stroke-linejoin="round">
    <circle cx="16" cy="11.5" r="5.2" stroke-width="1.15" opacity="0.95"/>
    <path d="M12 19 L20 19 L21.5 26 L10.5 26 Z" stroke-width="1.1" opacity="0.85"/>
    <line x1="6.5" y1="26.5" x2="25.5" y2="26.5" stroke-width="1" opacity="0.55"/>
  </g>
  <circle cx="14.2" cy="9.7" r="1.3" fill="#e9e6dd" filter="url(#g2s)" opacity="0.95"/></g>
    <text x="150" y="42" font-family="Georgia, serif" font-size="18" fill="#e9e6dd" text-anchor="middle">Plinth & Orb</text>
    <text x="150" y="205" font-family="ui-monospace, monospace" font-size="9" letter-spacing="0.6" fill="#88857e" text-anchor="middle">an object of taste on an architectural pedestal</text>
    <text x="178" y="178" font-family="ui-monospace, monospace" font-size="8" letter-spacing="1.5" fill="#88857e" text-anchor="middle">nav size</text>
  </g></svg>